<?xml version="1.0" encoding="UTF-8"?>
<svg width="30px" height="27px" viewBox="0 0 30 27" version="1.1" xmlns="http://www.w3.org/2000/svg" xmlns:xlink="http://www.w3.org/1999/xlink">
    <!-- Generator: Sketch 43.1 (39012) - http://www.bohemiancoding.com/sketch -->
    <title>Shape</title>
    <desc>Created with Sketch.</desc>
    <defs></defs>
    <g id="Page-1" stroke="none" stroke-width="1" fill="none" fill-rule="evenodd">
        <path d="M3.91666667,13.9166667 L13.0833333,13.9166667 L13.0833333,4.75 L3.91666667,4.75 L3.91666667,13.9166667 Z M4.75,5.58333333 L12.25,5.58333333 L12.25,13.0833333 L4.75,13.0833333 L4.75,5.58333333 Z M3.91666667,16 L13.0833333,16 L13.0833333,16.8333333 L3.91666667,16.8333333 L3.91666667,16 Z M3.91666667,18.0833333 L13.0833333,18.0833333 L13.0833333,18.9166667 L3.91666667,18.9166667 L3.91666667,18.0833333 Z M3.91666667,20.1666667 L13.0833333,20.1666667 L13.0833333,21 L3.91666667,21 L3.91666667,20.1666667 Z M14.75,18.0833333 L23.0833333,18.0833333 L23.0833333,18.9166667 L14.75,18.9166667 L14.75,18.0833333 Z M14.75,20.1666667 L23.0833333,20.1666667 L23.0833333,21 L14.75,21 L14.75,20.1666667 Z M14.75,4.75 L23.0833333,4.75 L23.0833333,5.58333333 L14.75,5.58333333 L14.75,4.75 Z M14.75,6.83333333 L23.0833333,6.83333333 L23.0833333,7.66666667 L14.75,7.66666667 L14.75,6.83333333 Z M14.75,8.91666667 L23.0833333,8.91666667 L23.0833333,9.75 L14.75,9.75 L14.75,8.91666667 Z M14.75,11 L23.0833333,11 L23.0833333,11.8333333 L14.75,11.8333333 L14.75,11 Z M14.75,13.0833333 L23.0833333,13.0833333 L23.0833333,13.9166667 L14.75,13.9166667 L14.75,13.0833333 Z M14.75,16 L23.0833333,16 L23.0833333,16.8333333 L14.75,16.8333333 L14.75,16 Z M26.8333333,3.5 L26,3.5 L26,3.08333333 C26,1.91666667 25.0833333,1 23.9166667,1 L3.08333333,1 C1.91666667,1 1,1.91666667 1,3.08333333 L1,23.9166667 C1,25.0833333 1.91666667,26 3.08333333,26 L26.8333333,26 C28,26 28.9166667,25.0833333 28.9166667,23.9166667 L28.9166667,5.58333333 C28.9166667,4.41666667 28,3.5 26.8333333,3.5 Z M28.0833333,23.9166667 C28.0833333,24.625 27.5416667,25.1666667 26.8333333,25.1666667 L3.08333333,25.1666667 C2.375,25.1666667 1.83333333,24.625 1.83333333,23.9166667 L1.83333333,3.08333333 C1.83333333,2.375 2.375,1.83333333 3.08333333,1.83333333 L23.9166667,1.83333333 C24.625,1.83333333 25.1666667,2.375 25.1666667,3.08333333 L25.1666667,22.6666667 C25.1666667,23.2254167 26,23.2258333 26,22.6666667 L26,4.33333333 L26.8333333,4.33333333 C27.5416667,4.33333333 28.0833333,4.875 28.0833333,5.58333333 L28.0833333,23.9166667 Z" id="Shape" stroke="#15427A" stroke-width="0.5" fill="#15427A" fill-rule="nonzero"></path>
    </g>
</svg>