<?xml version="1.0" encoding="UTF-8"?>
<svg width="33px" height="25px" viewBox="0 0 33 25" version="1.1" xmlns="http://www.w3.org/2000/svg" xmlns:xlink="http://www.w3.org/1999/xlink">
    <!-- Generator: Sketch 43.1 (39012) - http://www.bohemiancoding.com/sketch -->
    <title>Shape</title>
    <desc>Created with Sketch.</desc>
    <defs></defs>
    <g id="Page-1" stroke="none" stroke-width="1" fill="none" fill-rule="evenodd">
        <path d="M30.4722154,3.40474543 C31.0311992,3.12925373 31.25394,3.26778954 31.25394,3.89107132 L31.25394,21.1089287 C31.25394,21.7323825 31.0307179,21.8711194 30.4692684,21.5949281 L23.2557141,18.0399153 L21.0337988,16.9438007 L19.5913844,16.2322294 L19.5913844,17.8406115 L19.5913844,22.3209392 C19.5885024,23.2456702 18.8370546,23.997118 17.9092123,24.0000048 L2.67906084,24 C1.75456404,23.9968577 1.00314233,23.245436 0.999994245,22.3175464 L1,2.67906084 C1.00314233,1.75456404 1.75456404,1.00314233 2.68245356,0.999994245 L17.9108009,1 C18.8355319,1.00288198 19.5869798,1.75432984 19.5898666,2.68217215 L19.5898618,7.15938851 L19.5898618,8.76728342 L21.0320325,8.05631944 L23.2558281,6.96002856 L30.4720886,3.40480795 L30.4722154,3.40474543 Z" id="Shape" stroke="#15427A" stroke-width="2" fill-rule="nonzero"></path>
    </g>
</svg>