<?xml version="1.0" encoding="UTF-8"?>
<svg width="39px" height="29px" viewBox="0 0 39 29" version="1.1" xmlns="http://www.w3.org/2000/svg" xmlns:xlink="http://www.w3.org/1999/xlink">
    <!-- Generator: Sketch 43.1 (39012) - http://www.bohemiancoding.com/sketch -->
    <title>envelope</title>
    <desc>Created with Sketch.</desc>
    <defs></defs>
    <g id="Page-1" stroke="none" stroke-width="1" fill="none" fill-rule="evenodd">
        <path d="M1.70909111,0 C0.784408727,0 0,0.784408727 0,1.70909111 L0,26.490925 C0,27.415586 0.784408727,28.2000161 1.70909111,28.2000161 L36.7454587,28.2000161 C37.6701411,28.2000161 38.4545498,27.415586 38.4545498,26.490925 L38.4545498,1.70909111 C38.4545498,0.784408727 37.6701411,0 36.7454587,0 L1.70909111,0 L1.70909111,0 Z M3.8454549,2.56363666 L34.6090948,2.56363666 L19.2272749,15.0079691 L3.8454549,2.56363666 Z M2.56363657,4.80681874 L18.4261384,17.6517194 C18.8944455,18.0266037 19.5601042,18.0266037 20.0284113,17.6517194 L35.8909132,4.80681874 L35.8909132,25.6363794 L2.56363657,25.6363794 L2.56363657,4.80681874 Z" id="Shape" fill="#FFFFFF" fill-rule="nonzero"></path>
    </g>
</svg>