<?xml version="1.0" encoding="UTF-8"?>
<svg width="26px" height="25px" viewBox="0 0 26 25" version="1.1" xmlns="http://www.w3.org/2000/svg" xmlns:xlink="http://www.w3.org/1999/xlink">
    <!-- Generator: Sketch 43.1 (39012) - http://www.bohemiancoding.com/sketch -->
    <title>globe</title>
    <desc>Created with Sketch.</desc>
    <defs></defs>
    <g id="Page-1" stroke="none" stroke-width="1" fill="none" fill-rule="evenodd">
        <path d="M24.8795,10.784 C24.81825,10.34075 24.735,9.90475 24.6285,9.47725 C24.323,8.2525 23.83825,7.098 23.20075,6.04525 C22.92475,5.58925 22.618,5.15425 22.288,4.7385 C19.99575,1.8545 16.46175,0 12.5,0 C8.5385,0 5.004,1.8545 2.71225,4.73875 C2.382,5.15425 2.0755,5.5895 1.79975,6.0455 C1.16225,7.09825 0.677,8.25275 0.37175,9.4775 C0.26525,9.90475 0.182,10.341 0.121,10.78425 C0.04325,11.34525 0,11.9175 0,12.5 C0,13.0825 0.04325,13.65475 0.12075,14.216 C0.182,14.65925 0.26525,15.0955 0.3715,15.52275 C0.677,16.74775 1.162,17.902 1.7995,18.955 C2.0755,19.411 2.382,19.846 2.712,20.26175 C5.004,23.1455 8.5385,25 12.5,25 C16.4615,25 19.996,23.1455 22.288,20.26125 C22.618,19.84575 22.92475,19.41075 23.20075,18.9545 C23.838,17.9015 24.323,16.7475 24.6285,15.52225 C24.735,15.095 24.81825,14.659 24.8795,14.2155 C24.95675,13.6545 25,13.08225 25,12.5 C25,11.91775 24.95675,11.34525 24.8795,10.784 Z M8.9925,1.8725 C8.3455,2.6345 7.7775,3.60525 7.31075,4.73875 L4.44575,4.73875 C5.69325,3.4445 7.24825,2.44975 8.9925,1.8725 Z M3.36375,6.04525 L6.84025,6.04525 C6.51325,7.09475 6.26575,8.248 6.11075,9.47725 L1.7245,9.47725 C2.07425,8.23225 2.634,7.075 3.36375,6.04525 Z M1.30675,12.5 C1.30675,11.91675 1.352,11.34375 1.43825,10.784 L5.984,10.784 C5.94525,11.34425 5.9235,11.91625 5.9235,12.5 C5.9235,13.08375 5.94525,13.65575 5.984,14.216 L1.43825,14.216 C1.35175,13.65625 1.30675,13.0835 1.30675,12.5 Z M3.36375,18.9545 C2.63425,17.92475 2.07425,16.7675 1.7245,15.52225 L6.1105,15.52225 C6.2655,16.75175 6.51325,17.90475 6.84,18.9545 L3.36375,18.9545 Z M4.446,20.26125 L7.311,20.26125 C7.7775,21.39475 8.34575,22.36525 8.99275,23.1275 C7.24825,22.55 5.6935,21.55575 4.446,20.26125 Z M11.84675,23.59975 C10.64875,23.26875 9.56175,22.0445 8.744,20.26125 L11.84675,20.26125 L11.84675,23.59975 Z M11.84675,18.9545 L8.2275,18.9545 C7.8765,17.921 7.60575,16.76225 7.4355,15.52225 L11.847,15.52225 C11.84675,16.757 11.84675,17.912 11.84675,18.9545 Z M11.84675,12.5 L11.84675,14.216 L7.29525,14.216 C7.2525,13.655 7.22975,13.08175 7.22975,12.5 C7.22975,11.918 7.25225,11.345 7.29525,10.784 L11.84675,10.784 L11.84675,12.5 Z M11.84675,9.47725 L7.43525,9.47725 C7.6055,8.23725 7.8765,7.0785 8.22725,6.04525 L11.84675,6.04525 L11.84675,9.47725 Z M11.84675,4.73875 L8.744,4.73875 C9.562,2.955 10.64875,1.73125 11.84675,1.4 L11.84675,4.73875 Z M21.63625,6.04525 C22.366,7.075 22.9255,8.23225 23.2755,9.47725 L18.8895,9.47725 C18.73425,8.248 18.48675,7.09475 18.15975,6.04525 L21.63625,6.04525 L21.63625,6.04525 Z M20.55425,4.73875 L17.68925,4.73875 C17.22275,3.60525 16.65425,2.6345 16.0075,1.87275 C17.75175,2.44975 19.30675,3.4445 20.55425,4.73875 Z M13.15325,1.4 C14.3515,1.73125 15.43825,2.955 16.256,4.7385 L13.15325,4.7385 L13.15325,1.4 Z M13.15325,6.04525 L16.7725,6.04525 C17.12375,7.0785 17.3945,8.23725 17.56475,9.47725 L13.15325,9.47725 L13.15325,6.04525 Z M13.15325,10.784 L17.70475,10.784 C17.74725,11.345 17.77,11.918 17.77,12.5 C17.77,13.082 17.74725,13.65525 17.70475,14.216 L13.15325,14.216 L13.15325,10.784 Z M13.15325,15.5225 L17.56475,15.5225 C17.3945,16.7625 17.12375,17.92125 16.7725,18.95475 L13.15325,18.95475 L13.15325,15.5225 Z M13.15325,23.59975 L13.15325,20.26125 L16.256,20.26125 C15.43825,22.04475 14.3515,23.2685 13.15325,23.59975 Z M16.0075,23.1275 C16.65425,22.36525 17.2225,21.3945 17.689,20.26125 L20.554,20.26125 C19.3065,21.5555 17.75175,22.55 16.0075,23.1275 Z M21.63625,18.9545 L18.1595,18.9545 C18.48675,17.905 18.73425,16.75175 18.8895,15.52225 L23.2755,15.52225 C22.9255,16.7675 22.366,17.92475 21.63625,18.9545 Z M23.56175,14.21575 L19.01575,14.21575 C19.05475,13.6555 19.0765,13.08375 19.0765,12.49975 C19.0765,11.91625 19.05475,11.344 19.01575,10.78375 L23.56175,10.78375 C23.64825,11.34325 23.69325,11.91625 23.69325,12.49975 C23.69325,13.0835 23.64825,13.65625 23.56175,14.21575 Z" id="Shape" fill="#15427A" fill-rule="nonzero"></path>
    </g>
</svg>