<?xml version="1.0" encoding="UTF-8"?>
<svg width="25px" height="25px" viewBox="0 0 25 25" version="1.1" xmlns="http://www.w3.org/2000/svg" xmlns:xlink="http://www.w3.org/1999/xlink">
    <!-- Generator: Sketch 43.1 (39012) - http://www.bohemiancoding.com/sketch -->
    <title>slides</title>
    <desc>Created with Sketch.</desc>
    <defs></defs>
    <g id="Page-1" stroke="none" stroke-width="1" fill="none" fill-rule="evenodd">
        <path d="M24.0384615,0 L0.961538462,0 C0.430769231,0 0,0.430769231 0,0.961538462 L0,16.3461538 C0,16.8769231 0.430769231,17.3076923 0.961538462,17.3076923 L6.30480769,17.3076923 L3.90721154,23.7009615 C3.72067308,24.1980769 3.97259615,24.7524038 4.46971154,24.9389423 C4.58076923,24.9802885 4.69519231,25.0004808 4.80721154,25.0004808 C5.19663462,25.0004808 5.56298077,24.7620192 5.70769231,24.3759615 L8.35865385,17.3076923 L11.5384615,17.3076923 L11.5384615,22.1153846 C11.5384615,22.6461538 11.9692308,23.0769231 12.5,23.0769231 C13.0307692,23.0769231 13.4615385,22.6461538 13.4615385,22.1153846 L13.4615385,17.3076923 L16.6408654,17.3076923 L19.2918269,24.3759615 C19.4370192,24.7620192 19.8028846,25.0004808 20.1923077,25.0004808 C20.3043269,25.0004808 20.41875,24.9802885 20.5298077,24.9389423 C21.0269231,24.7519231 21.2793269,24.1980769 21.0927885,23.7009615 L18.6956731,17.3076923 L24.0384615,17.3076923 C24.5692308,17.3076923 25,16.8769231 25,16.3461538 L25,0.961538462 C25,0.430769231 24.5692308,0 24.0384615,0 Z M23.0769231,15.3846154 L1.92307692,15.3846154 L1.92307692,1.92307692 L23.0769231,1.92307692 L23.0769231,15.3846154 Z" id="Shape" fill="#15427A" fill-rule="nonzero"></path>
    </g>
</svg>