<?xml version="1.0" encoding="UTF-8"?>
<svg width="31px" height="25px" viewBox="0 0 31 25" version="1.1" xmlns="http://www.w3.org/2000/svg" xmlns:xlink="http://www.w3.org/1999/xlink">
    <!-- Generator: Sketch 43.1 (39012) - http://www.bohemiancoding.com/sketch -->
    <title>twitter</title>
    <desc>Created with Sketch.</desc>
    <defs></defs>
    <g id="Page-1" stroke="none" stroke-width="1" fill="none" fill-rule="evenodd">
        <path d="M9.67560794,25 C21.2858452,25 27.6361552,15.3810034 27.6361552,7.03945278 C27.6361552,6.76624177 27.6361552,6.49426144 27.617695,6.22351179 C28.8530904,5.32992824 29.9195044,4.223508 30.7670057,2.95605579 C29.6149401,3.46654413 28.3928134,3.80132223 27.1414217,3.94921473 C28.4591652,3.16032663 29.4454071,1.91954243 29.9166056,0.457774932 C28.6775045,1.19305137 27.3218962,1.71123754 25.9082801,1.98997181 C23.9516004,-0.0906232181 20.8424549,-0.599856167 18.3242739,0.747821558 C15.8060928,2.09549928 14.5051356,4.96492679 15.1509043,7.74709391 C10.0754507,7.4926502 5.34666044,5.09537587 2.14138359,1.15187858 C0.465963539,4.0361558 1.32173565,7.72599941 4.09570379,9.57834609 C3.09115023,9.54857291 2.10849904,9.27758406 1.23068023,8.78824938 L1.23068023,8.8682436 C1.23150248,11.8730638 3.34960574,14.4611132 6.29492936,15.0561038 C5.3656053,15.3095501 4.39055088,15.3465988 3.44467395,15.1644036 C4.27162698,17.735815 6.6414576,19.4973627 9.3420936,19.5480866 C7.10685222,21.3047989 4.34560512,22.2584478 1.50266056,22.2555831 C1.00042435,22.2546189 0.498676631,22.22421 0,22.1645128 C2.88672778,24.0170269 6.24559557,24.9996516 9.67560794,24.9950773" id="Shape" fill="#15427A" fill-rule="nonzero"></path>
    </g>
</svg>