<?xml version="1.0" encoding="UTF-8"?>
<svg width="25px" height="25px" viewBox="0 0 25 25" version="1.1" xmlns="http://www.w3.org/2000/svg" xmlns:xlink="http://www.w3.org/1999/xlink">
    <!-- Generator: Sketch 43.1 (39012) - http://www.bohemiancoding.com/sketch -->
    <title>video</title>
    <desc>Created with Sketch.</desc>
    <defs></defs>
    <g id="Page-1" stroke="none" stroke-width="1" fill="none" fill-rule="evenodd">
        <path d="M21,0 L3.77777778,0 C1.66666667,0 0,1.77777778 0,3.77777778 L0,21.1111111 C0,23.3333333 1.77777778,25 3.77777778,25 L21,25 C23.1111111,25 24.7777778,23.2222222 24.7777778,21.1111111 L24.7777778,3.77777778 C24.8888889,1.66666667 23.2222222,0 21,0 Z M17.4444444,1.66666667 L17.4444444,4.22222222 L13.2222222,4.22222222 L13.2222222,1.66666667 L17.4444444,1.66666667 Z M7.44444444,1.66666667 L11.6666667,1.66666667 L11.6666667,4.22222222 L7.44444444,4.22222222 L7.44444444,1.66666667 Z M1.55555556,3.77777778 C1.55555556,2.66666667 2.44444444,1.66666667 3.66666667,1.66666667 L5.66666667,1.66666667 L5.66666667,4.22222222 L1.55555556,4.22222222 L1.55555556,3.77777778 Z M5.77777778,23.3333333 L3.77777778,23.3333333 C2.55555556,23.3333333 1.66666667,22.3333333 1.66666667,21.1111111 L1.66666667,20.7777778 L5.88888889,20.7777778 C5.77777778,20.7777778 5.77777778,23.3333333 5.77777778,23.3333333 Z M7.33333333,23.3333333 L7.33333333,20.7777778 L11.5555556,20.7777778 L11.5555556,23.3333333 L7.33333333,23.3333333 Z M17.4444444,23.3333333 L13.2222222,23.3333333 L13.2222222,20.7777778 L17.4444444,20.7777778 L17.4444444,23.3333333 Z M23.2222222,21.1111111 C23.2222222,22.2222222 22.2222222,23.3333333 21,23.3333333 L19,23.3333333 L19,20.7777778 L23.2222222,20.7777778 L23.2222222,21.1111111 Z M23.2222222,19.1111111 L1.55555556,19.1111111 L1.55555556,5.77777778 L23.2222222,5.77777778 L23.2222222,19.1111111 Z M19,4.11111111 L19,1.66666667 L20.8888889,1.66666667 C22.1111111,1.66666667 23,2.66666667 23,3.77777778 L23.2222222,4.11111111 L19,4.11111111 Z" id="Shape" fill="#15427A" fill-rule="nonzero"></path>
    </g>
</svg>